<?xml version="1.0" encoding="utf-8"?>
<!-- Generator: Adobe Illustrator 20.0.0, SVG Export Plug-In . SVG Version: 6.00 Build 0)  -->
<svg version="1.1" id="Calque_1" xmlns="http://www.w3.org/2000/svg" xmlns:xlink="http://www.w3.org/1999/xlink" x="0px" y="0px"
	 viewBox="0 0 403 63" style="enable-background:new 0 0 403 63;" xml:space="preserve">
<style type="text/css">
	.st0{clip-path:url(#SVGID_2_);fill:#FFFFFF;}
	.st1{clip-path:url(#SVGID_4_);fill:#28529B;}
	.st2{clip-path:url(#SVGID_4_);fill:none;stroke:#28529B;stroke-width:0.644;}
	.st3{clip-path:url(#SVGID_6_);fill:none;stroke:#28529B;stroke-width:0.644;}
	.st4{clip-path:url(#SVGID_8_);fill:#28529B;}
	.st5{clip-path:url(#SVGID_8_);fill:none;stroke:#28529B;stroke-width:0.644;}
	.st6{clip-path:url(#SVGID_10_);fill:#E30613;}
</style>
<g>
	<defs>
		<rect id="SVGID_1_" y="0.2" width="402.4" height="62.8"/>
	</defs>
	<clipPath id="SVGID_2_">
		<use xlink:href="#SVGID_1_"  style="overflow:visible;"/>
	</clipPath>
	<path class="st0" d="M70.5,12.8c0,0-0.4-2.6-2.4-5.2c-0.8-1-3.4-3.5-8.1-4.8C53.4,1,44.2,0.4,37.3,0.2c-0.4,0-0.3,0-0.7,0
		c-8.6-0.1-20.5,1.5-20.5,1.5S3.1,3.6,1.6,10c0,0-1.5,6.5-1.5,18.9c0,12.4,1.2,22.5,1.2,22.5S2.5,61.5,12,62.1c0,0,1.1,0.1,3.2,0.2
		l7.5,0.3c3.7,0.1,8.3,0.2,13.5,0.2c14.7,0,24.1-0.6,24.1-0.6s9.4-0.6,10.2-11.4c0,0,0.8-10.8,0.8-19.8
		C71.3,21.9,70.5,12.8,70.5,12.8"/>
</g>
<g>
	<defs>
		<rect id="SVGID_3_" width="403" height="63"/>
	</defs>
	<clipPath id="SVGID_4_">
		<use xlink:href="#SVGID_3_"  style="overflow:visible;"/>
	</clipPath>
	<path class="st1" d="M108,37.5v15h-8.4V30.6c0-5.2,0.3-10.1,4.4-13.9c3.7-3.4,9.1-3.7,13.9-3.7h13.7V20h-12.6c-2,0-4,0.1-5.9,0.5
		c-3.6,0.7-5.1,3-5.1,6.5v3.4h23.6v7.1H108"/>
	<path class="st2" d="M108,37.5v15h-8.4V30.6c0-5.2,0.3-10.1,4.4-13.9c3.7-3.4,9.1-3.7,13.9-3.7h13.7V20h-12.6c-2,0-4,0.1-5.9,0.5
		c-3.6,0.7-5.1,3-5.1,6.5v3.4h23.6v7.1H108z"/>
	<path class="st1" d="M164.6,52.5c-0.6-1.8-0.6-3.7-0.9-5.6c-0.8-7.3-3.4-9.4-10.7-9.4h-6.8v15h-8.4V13h19.3c2.9,0,6,0.1,8.8,0.9
		c4.6,1.3,7.4,5.4,7.4,10.1c0,5.4-2.1,9.8-7.5,11.5c3.4,1.2,4.7,2.2,6.2,5.6c1.1,2.6,0.9,5.4,1.2,8.2c0.1,1.1,0.4,2.1,0.7,3.2H164.6
		 M158.1,20h-11.8v10.4h11.8c3.8,0,6.1-1.2,6.1-5.5C164.2,20.9,161.6,20,158.1,20z"/>
	<path class="st2" d="M164.6,52.5c-0.6-1.8-0.6-3.7-0.9-5.6c-0.8-7.3-3.4-9.4-10.7-9.4h-6.8v15h-8.4V13h19.3c2.9,0,6,0.1,8.8,0.9
		c4.6,1.3,7.4,5.4,7.4,10.1c0,5.4-2.1,9.8-7.5,11.5c3.4,1.2,4.7,2.2,6.2,5.6c1.1,2.6,0.9,5.4,1.2,8.2c0.1,1.1,0.4,2.1,0.7,3.2H164.6
		z M158.1,20h-11.8v10.4h11.8c3.8,0,6.1-1.2,6.1-5.5C164.2,20.9,161.6,20,158.1,20z"/>
	<rect x="181.7" y="13" class="st1" width="8.4" height="39.5"/>
	<rect x="181.7" y="13" class="st2" width="8.4" height="39.5"/>
	<path class="st1" d="M232.2,48.7c-3.3,4.1-8,3.8-12.8,3.8h-19.8v-7h18c3.3,0,7.9-0.1,7.9-4.6c0-1.3-0.5-2.6-1.4-3.4
		c-1.4-1.4-3.6-1.5-5.4-1.5h-7.3c-2.3,0-5.2-0.2-7.4-1.1c-4-1.6-6.2-6-6.2-10.2c0-3.2,1.4-6.9,3.9-9.1c3.1-2.7,7.5-2.6,11.5-2.6
		h19.5V20h-17.7c-3.6,0-7.9-0.5-7.9,4.4c0,4.3,4,4.5,7.2,4.5h6.3c3.1,0,6,0.1,8.9,1.5c3.9,1.9,5.4,6.3,5.4,10.4
		C234.8,43.6,234,46.5,232.2,48.7"/>
	<path class="st2" d="M232.2,48.7c-3.3,4.1-8,3.8-12.8,3.8h-19.8v-7h18c3.3,0,7.9-0.1,7.9-4.6c0-1.3-0.5-2.6-1.4-3.4
		c-1.4-1.4-3.6-1.5-5.4-1.5h-7.3c-2.3,0-5.2-0.2-7.4-1.1c-4-1.6-6.2-6-6.2-10.2c0-3.2,1.4-6.9,3.9-9.1c3.1-2.7,7.5-2.6,11.5-2.6
		h19.5V20h-17.7c-3.6,0-7.9-0.5-7.9,4.4c0,4.3,4,4.5,7.2,4.5h6.3c3.1,0,6,0.1,8.9,1.5c3.9,1.9,5.4,6.3,5.4,10.4
		C234.8,43.6,234,46.5,232.2,48.7z"/>
	<path class="st1" d="M260.3,53.4c-4.7,0-9.8-0.7-13.6-3.7c-4.9-3.8-6.3-10.1-6.3-15.9c0-13.2,6-20.1,19.5-20.1
		c6.3,0,13.6,1.8,16.8,7.8c1.8,3.3,2.8,8.1,2.8,11.9c0,2.8-0.7,12-6.5,15.9C267.6,53.6,260.3,53.4,260.3,53.4 M264.5,46
		c2-1,2.8-2,2.8-2c0.1-0.2,0.3-0.3,0.4-0.5c1.9-2.5,2.4-6.2,2.4-10.2c0-6.9-2.4-13-10.2-13c-8.2,0-10.2,5.9-10.2,13.1
		c0,6.6,1.6,12.1,7.9,13.2C260,46.9,262.5,47,264.5,46z"/>
	<path class="st2" d="M260.3,53.4c-4.7,0-9.8-0.7-13.6-3.7c-4.9-3.8-6.3-10.1-6.3-15.9c0-13.2,6-20.1,19.5-20.1
		c6.3,0,13.6,1.8,16.8,7.8c1.8,3.3,2.8,8.1,2.8,11.9c0,2.8-0.7,12-6.5,15.9C267.6,53.6,260.3,53.4,260.3,53.4z M264.5,46
		c2-1,2.8-2,2.8-2c0.1-0.2,0.3-0.3,0.4-0.5c1.9-2.5,2.4-6.2,2.4-10.2c0-6.9-2.4-13-10.2-13c-8.2,0-10.2,5.9-10.2,13.1
		c0,6.6,1.6,12.1,7.9,13.2C260,46.9,262.5,47,264.5,46z"/>
	<path class="st1" d="M320.9,46c-2.8,5.4-9.9,6.8-15.4,6.8c-5.6,0-11.4-0.9-14.9-5.7c-2.3-3.1-2.4-6.5-2.4-10.2V13h8.3v23.7
		c0,1.9,0.1,3.8,0.9,5.5c1.4,2.8,5.1,4,8.1,4c2.1,0,4.7-0.6,6.5-1.8c2.3-1.7,2.3-5,2.3-7.6V13h8.4v23.3
		C322.7,39.3,322.3,43.2,320.9,46"/>
	<path class="st2" d="M320.9,46c-2.8,5.4-9.9,6.8-15.4,6.8c-5.6,0-11.4-0.9-14.9-5.7c-2.3-3.1-2.4-6.5-2.4-10.2V13h8.3v23.7
		c0,1.9,0.1,3.8,0.9,5.5c1.4,2.8,5.1,4,8.1,4c2.1,0,4.7-0.6,6.5-1.8c2.3-1.7,2.3-5,2.3-7.6V13h8.4v23.3
		C322.7,39.3,322.3,43.2,320.9,46z"/>
	<path class="st1" d="M350.5,52.5c-3.4,0-7.8-0.2-11-1.4c-7.3-2.7-9.8-11.7-9.8-18.7c0-6.9,2.4-13.7,8.5-17.5c2.7-1.7,6-1.9,9.1-1.9
		h14.2V20h-11c-1.8,0-4.9,0.1-6.6,0.7c-1.2,0.5-2.1,1.2-2.9,2.2c-1.4,1.8-1.5,4.1-1.8,6.4h22.2v7h-22.2c0.7,7.6,4.6,9.1,11.6,9.1
		h10.6v7H350.5"/>
	<path class="st2" d="M350.5,52.5c-3.4,0-7.8-0.2-11-1.4c-7.3-2.7-9.8-11.7-9.8-18.7c0-6.9,2.4-13.7,8.5-17.5c2.7-1.7,6-1.9,9.1-1.9
		h14.2V20h-11c-1.8,0-4.9,0.1-6.6,0.7c-1.2,0.5-2.1,1.2-2.9,2.2c-1.4,1.8-1.5,4.1-1.8,6.4h22.2v7h-22.2c0.7,7.6,4.6,9.1,11.6,9.1
		h10.6v7H350.5z"/>
	<polyline class="st1" points="389,20 389,52.5 380.6,52.5 380.6,20 368,20 368,13 402.1,13 402.1,20 389,20 	"/>
</g>
<g>
	<defs>
		<rect id="SVGID_5_" y="0.2" width="402.4" height="62.8"/>
	</defs>
	<clipPath id="SVGID_6_">
		<use xlink:href="#SVGID_5_"  style="overflow:visible;"/>
	</clipPath>
	<polygon class="st3" points="389,20 389,52.5 380.6,52.5 380.6,20 368,20 368,13 402.1,13 402.1,20 	"/>
</g>
<g>
	<defs>
		<rect id="SVGID_7_" width="403" height="63"/>
	</defs>
	<clipPath id="SVGID_8_">
		<use xlink:href="#SVGID_7_"  style="overflow:visible;"/>
	</clipPath>
	<polyline class="st4" points="266.2,58.3 256.9,42.6 264.2,41.4 274.9,57.1 266.2,58.3 	"/>
	<polygon class="st5" points="266.2,58.3 256.9,42.6 264.2,41.4 274.9,57.1 	"/>
</g>
<g>
	<defs>
		<rect id="SVGID_9_" y="0.2" width="402.4" height="62.8"/>
	</defs>
	<clipPath id="SVGID_10_">
		<use xlink:href="#SVGID_9_"  style="overflow:visible;"/>
	</clipPath>
	<path class="st6" d="M7.5,39.6c-1.4-1.1-1.8-2.5-1.8-2.5s6.6-0.2,10.3-0.9c2.7-0.6,5.7-1.2,8.9-1.8c2.9-9.1,5.9-18.5,9.8-26.3
		c1.9-3.4,4-5.8,6.1-7.6c-1.2-0.1-2.4-0.1-3.5-0.1c-0.4,0-0.3,0-0.7,0C27.9,0.2,16,1.9,16,1.9S3,3.7,1.5,10.2c0,0-1.5,6.5-1.5,19
		c0,12.5,1.2,22.6,1.2,22.6S2.4,61.8,12,62.4c0,0,1.1,0.1,3.2,0.2l1.5,0.1c2.1-7.7,4.5-16.1,6.2-21.9c-2.8,0.3-6.1,0.7-7.8,0.9
		C12.4,41.9,9.5,41.3,7.5,39.6 M70.6,13c0,0-0.4-2.6-2.4-5.2c-0.8-1-3.4-3.5-8.1-4.9c-2.4-0.6-5.1-1.1-8-1.5c-4.4,2.1-8.6,5.5-11,10
		C37.7,17.3,35.3,25.8,33,33c5.7-0.9,11.6-1.6,17.4-1.7c3.7,0.2,6.1,0.3,8.3,1.6c4.4,2.7,4.6,6.4,4.6,6.4s-3.5-0.9-4.5-1
		c-6.9-0.9-21.7,1-28,1.7C28.3,48,26,55.6,24.5,61c-0.1,0.5-0.3,1.1-0.5,1.9C27.5,63,31.6,63,36.3,63c14.8,0,24.2-0.6,24.2-0.6
		s9.4-0.6,10.2-11.4c0,0,0.8-10.9,0.8-19.9C71.4,22.1,70.6,13,70.6,13z"/>
</g>
</svg>
